FILE "Rise of the Dragon - A Blade Hunter Mystery (1992)(Sega)(JP).img" BINARY
  TRACK 01 MODE1/2352
    INDEX 01 00:00:00
  TRACK 02 AUDIO
    PREGAP 00:02:00
    INDEX 01 16:49:67
  TRACK 03 AUDIO
    INDEX 00 18:17:63
    INDEX 01 18:19:62
  TRACK 04 AUDIO
    INDEX 00 21:55:36
    INDEX 01 21:57:35
  TRACK 05 AUDIO
    INDEX 00 24:12:18
    INDEX 01 24:14:17
